<svg xmlns="http://www.w3.org/2000/svg" version="1.1" xmlns:xlink="http://www.w3.org/1999/xlink" xmlns:svgjs="http://svgjs.dev/svgjs" width="100%" height="100%" viewBox="0 0 1000 600"><rect width="1000" height="600" x="0" y="0" fill="#f4efea"/><g><rect width="333.3333333333333" height="333.3333333333333" y="248.18043804356395" fill="#7d141d" transform="matrix(0.5531996012532729,0,0,0.5531996012532729,0,70.5067396530482)" x="225.95822143554693"/><path d="M365.64015094918915 489.8471048018573L346.9979577328376 489.8471048018573L346.9979577328376 339.8471088510715L438.25182523850145 339.8471088510715L438.25182523850145 355.86878024519564L365.64015094918915 355.86878024519564L365.64015094918915 405.79137951674204L433.2098085678868 405.79137951674204L433.2098085678868 421.77987974855955L365.64015094918915 421.77987974855955L365.64015094918915 489.8471048018573Z " fill="#f4efea" transform="matrix(0.5531996012532729,0,0,0.5531996012532729,0,70.5067396530482)"/><path d="M659.3278832501419 487.29113301852317L642.6248917777701 487.29113301852317L642.6248917777701 352.8944649792609L724.3863322412841 352.8944649792609L724.3863322412841 367.249527045374L659.3278832501419 367.249527045374L659.3278832501419 411.97906826587155L719.8687971811408 411.97906826587155L719.8687971811408 426.304409706589L659.3278832501419 426.304409706589L659.3278832501419 487.29113301852317ZM827.5169023642917 487.29113301852317L812.9537959204088 487.29113301852317L810.8139108919198 464.8223402193895L810.8139108919198 420.9546971353667Q810.8139108919198 407.16432695177144 804.9292270635754 401.10131937105285Q799.0445432352308 395.06803241572993 787.2751755785417 395.06803241572993L787.2751755785417 395.06803241572993Q780.6474761153053 395.06803241572993 775.2383222932916 396.9998730664491Q769.8588890966736 398.90199309177257 766.6787821793359 402.9142775201893Q763.5283958873939 406.92656194860604 763.5283958873939 413.2570551578857L763.5283958873939 413.2570551578857L744.9232843896986 413.2570551578857Q744.9232843896986 402.11182063450593 750.3621588371079 395.33551804429106Q755.8307539099129 388.52949482868047 765.4007952873217 385.4979910383212Q774.9708366647304 382.4367666225662 787.2751755785417 382.4367666225662L787.2751755785417 382.4367666225662Q799.0445432352308 382.4367666225662 808.1390546063087 386.3896098001915Q817.2335659773865 390.34245297781695 822.3752341708391 398.96143434256396Q827.5169023642917 407.580415707311 827.5169023642917 421.3707858909062L827.5169023642917 421.3707858909062L827.5169023642917 487.29113301852317ZM778.0915023312768 489.8471068025516L778.0915023312768 489.8471068025516Q765.4602365381131 489.8471068025516 757.2276233035099 485.35929236780396Q748.9950100689067 480.87147793305644 744.9232843896986 473.70880721269765Q740.8515587104905 466.54613649233886 740.8515587104905 458.6107295116925L740.8515587104905 458.6107295116925Q740.8515587104905 448.2382312486004 746.0526681547344 441.6996936615509Q751.2240569735826 435.1908766998971 760.2294064684735 432.12965228414214Q769.2050353379686 429.09814849378284 780.4394317375354 429.09814849378284L780.4394317375354 429.09814849378284Q788.4640005943689 429.09814849378284 796.5480107019937 430.7030622651495Q804.6320208096186 432.30797603651627 812.3296627870996 435.0719941983144L812.3296627870996 435.0719941983144L812.3296627870996 445.56337496298926Q805.9100077016327 443.00740117896083 797.825997594008 441.49164928378116Q789.7419874863831 440.0056180139972 782.995405521564 440.0056180139972L782.995405521564 440.0056180139972Q772.7417897600545 440.0056180139972 765.6682809158829 444.2259468201837Q758.6244926971068 448.44627562637015 758.6244926971068 458.6107295116925L758.6244926971068 458.6107295116925Q758.6244926971068 466.1003271114037 764.0039258937247 471.45003968262597Q769.4130797157384 476.7997522538483 781.3013298740102 476.7997522538483L781.3013298740102 476.7997522538483Q789.652825610196 476.7997522538483 796.339966324224 472.90635032701425Q803.0271070382519 468.9832277747846 806.9205089650858 463.0985439464401Q810.8139108919198 457.21386011809557 810.8139108919198 451.32917628975105L810.8139108919198 451.32917628975105L814.8856365711279 451.32917628975105Q814.8856365711279 461.61251267665614 810.4572633871717 470.38009716838155Q805.9991695778198 479.14768166010697 797.7665563432165 484.4973942313293Q789.5339431086134 489.8471068025516 778.0915023312768 489.8471068025516ZM890.524628203132 487.29113301852317L849.6587682840728 384.99274040659463L868.7096891627034 384.99274040659463L900.807964590037 472.96579157780565L898.4600351837784 472.96579157780565L930.5583106111121 384.99274040659463L949.6092314897427 384.99274040659463L908.7136509452878 487.29113301852317L890.524628203132 487.29113301852317ZM984.3823632026877 360.8298719599073L984.3823632026877 360.8298719599073Q979.240695009235 360.8298719599073 976.2389118442713 357.887530045735Q973.2371286793078 354.9451881315627 973.2371286793078 350.13044681746265L973.2371286793078 350.13044681746265Q973.2371286793078 345.40486737954967 976.2389118442713 342.64084921775145Q979.240695009235 339.8471104305576 984.3823632026877 339.8471104305576L984.3823632026877 339.8471104305576Q989.4943107707445 339.8471104305576 992.496093935708 342.64084921775145Q995.4978771006716 345.40486737954967 995.4978771006716 350.13044681746265L995.4978771006716 350.13044681746265Q995.4978771006716 354.9451881315627 992.496093935708 357.887530045735Q989.4943107707445 360.8298719599073 984.3823632026877 360.8298719599073ZM992.7041383134779 487.29113301852317L976.0308674665016 487.29113301852317L976.0308674665016 384.78469602882484L992.7041383134779 384.78469602882484L992.7041383134779 487.29113301852317ZM1074.6736231547616 489.8471068025516L1074.6736231547616 489.8471068025516Q1062.36928424095 489.8471068025516 1051.7293003492969 483.21940733931507Q1041.0893164576437 476.59170787607854 1034.550778870594 464.49541334003703Q1028.0122412835449 452.3991188039955 1028.0122412835449 435.9338923347891L1028.0122412835449 435.9338923347891Q1028.0122412835449 419.02285648464755 1034.550778870594 407.0454444501887Q1041.0893164576437 395.06803241572993 1051.7293003492969 388.7375392064502Q1062.36928424095 382.4367666225662 1074.6736231547616 382.4367666225662L1074.6736231547616 382.4367666225662Q1083.3520457702998 382.4367666225662 1090.2472308620977 385.052181657386Q1097.1424159538951 387.66759669220573 1102.2840841473476 392.27429362853604Q1107.4257523408 396.88099056486635 1110.7841830105122 402.70623314241953Q1114.1426136802238 408.5314757199727 1115.7475274515905 414.95113080543945L1115.7475274515905 414.95113080543945L1098.628447223679 416.4668827006191Q1095.953590938068 407.580415707311 1089.7122596049753 402.37930626306706Q1083.4412076464869 397.2079174442189 1074.4655787769916 397.2079174442189L1074.4655787769916 397.2079174442189Q1066.8570986756977 397.2079174442189 1060.1699579616698 401.54712875198805Q1053.4828172476423 405.85661943436156 1049.321929692247 414.4756007991086Q1045.131321511456 423.09458216385565 1045.131321511456 435.9338923347891L1045.131321511456 435.9338923347891Q1045.131321511456 447.8221424930609 1048.935561562103 456.53028573399496Q1052.73980161275 465.238428974929 1059.3675010759866 470.0531702890291Q1065.9952005392229 474.86791160312913 1074.4655787769916 474.86791160312913L1074.4655787769916 474.86791160312913Q1086.3241083098678 474.86791160312913 1092.4762777667734 469.04266902557595Q1098.628447223679 463.2174264480228 1098.628447223679 452.84492818493067L1098.628447223679 452.84492818493067L1115.7475274515905 452.84492818493067Q1115.7475274515905 463.5443533273753 1110.7247417597205 471.8958490635612Q1105.701956067851 480.21762417435144 1096.4588415697945 485.0323654884515Q1087.1860064463426 489.8471068025516 1074.6736231547616 489.8471068025516ZM1186.155689013955 489.8471068025516L1186.155689013955 489.8471068025516Q1172.3653188303597 489.8471068025516 1161.6064524371236 483.7543785964373Q1150.847586043888 477.661650390323 1144.6359753361908 465.68423835586424Q1138.4540852538894 453.7068263214054 1138.4540852538894 436.14193671255885L1138.4540852538894 436.14193671255885Q1138.4540852538894 418.48788522752534 1144.6359753361908 406.5699144438579Q1150.847586043888 394.62222303479473 1161.6064524371236 388.52949482868047Q1172.3653188303597 382.4367666225662 1186.155689013955 382.4367666225662L1186.155689013955 382.4367666225662Q1199.8568973213632 382.4367666225662 1210.6157637145993 388.52949482868047Q1221.374630107835 394.62222303479473 1227.526799564741 406.5699144438579Q1233.6789690216465 418.48788522752534 1233.6789690216465 436.14193671255885L1233.6789690216465 436.14193671255885Q1233.6789690216465 453.7068263214054 1227.526799564741 465.68423835586424Q1221.374630107835 477.661650390323 1210.6157637145993 483.7543785964373Q1199.8568973213632 489.8471068025516 1186.155689013955 489.8471068025516ZM1185.7396002584155 475.31372098406433L1185.7396002584155 475.31372098406433Q1195.696009765968 475.31372098406433 1202.6506361085571 470.5584209207556Q1209.6052624511462 465.77340023205124 1213.1717374986274 457.00581574032583Q1216.7679331715049 448.2382312486004 1216.7679331715049 436.14193671255885L1216.7679331715049 436.14193671255885Q1216.7679331715049 417.863752094216 1209.159453070211 407.31293007874984Q1201.5806935943128 396.7621080632837 1186.6014983948903 396.7621080632837L1186.6014983948903 396.7621080632837Q1176.526206385755 396.7621080632837 1169.6310212939575 401.54712875198805Q1162.7358362021596 406.30242881529676 1159.1396405292826 415.1294545578135Q1155.573165481801 423.9564803003303 1155.573165481801 436.14193671255885L1155.573165481801 436.14193671255885Q1155.573165481801 454.24179757852767 1163.2113662084907 464.76289896859817Q1170.84956693518 475.31372098406433 1185.7396002584155 475.31372098406433ZM1355.3254887661624 487.29113301852317L1338.8305416715602 487.29113301852317L1338.8305416715602 427.1663078430637Q1338.8305416715602 412.51403952299376 1331.8461947035753 404.8461181709085Q1324.832127110195 397.2079174442189 1312.7358325741534 397.2079174442189L1312.7358325741534 397.2079174442189Q1303.5224387014928 397.2079174442189 1296.8055773620695 402.23070313608866Q1290.0589953972503 407.2534888279585 1286.4033584735816 416.6154858275975Q1282.7774421753088 425.9774828272365 1282.7774421753088 438.93567549975273L1282.7774421753088 438.93567549975273L1276.357787089842 438.93567549975273Q1276.357787089842 421.07357963694943 1281.0536459023592 408.44231384378566Q1285.7792253402722 395.81104805062193 1294.8142954605592 389.1239073365941Q1303.8493655808456 382.4367666225662 1316.8075582533615 382.4367666225662L1316.8075582533615 382.4367666225662Q1328.9038527894031 382.4367666225662 1337.4931135287543 387.84592044457986Q1346.1120948935018 393.2550742665935 1350.7187918298318 403.30064565033314Q1355.3254887661624 413.34621703407277 1355.3254887661624 427.1663078430637L1355.3254887661624 427.1663078430637L1355.3254887661624 487.29113301852317ZM1282.7774421753088 487.29113301852317L1266.0744507029372 487.29113301852317L1266.0744507029372 384.99274040659463L1280.4295127690502 384.99274040659463L1282.7774421753088 408.5314757199727L1282.7774421753088 487.29113301852317ZM1380.0233284699716 477.33472351097055L1380.0233284699716 477.33472351097055Q1380.0233284699716 472.3119378191007 1383.5600828920578 468.6860215208278Q1387.0968373141436 465.03038459715924 1392.4465498853656 465.03038459715924L1392.4465498853656 465.03038459715924Q1397.796262456588 465.03038459715924 1401.5410612564438 468.6860215208278Q1405.2858600562995 472.3119378191007 1405.2858600562995 477.33472351097055L1405.2858600562995 477.33472351097055Q1405.2858600562995 482.35750920284033 1401.5410612564438 485.80510174873916Q1397.796262456588 489.22297366924226 1392.4465498853656 489.22297366924226L1392.4465498853656 489.22297366924226Q1387.0968373141436 489.22297366924226 1383.5600828920578 485.7456604979478Q1380.0233284699716 482.2683473266533 1380.0233284699716 477.33472351097055ZM1442.852730556438 360.8298719599073L1442.852730556438 360.8298719599073Q1437.7110623629856 360.8298719599073 1434.7092791980217 357.887530045735Q1431.7074960330583 354.9451881315627 1431.7074960330583 350.13044681746265L1431.7074960330583 350.13044681746265Q1431.7074960330583 345.40486737954967 1434.7092791980217 342.64084921775145Q1437.7110623629856 339.8471104305576 1442.852730556438 339.8471104305576L1442.852730556438 339.8471104305576Q1447.964678124495 339.8471104305576 1450.9664612894585 342.64084921775145Q1453.9682444544223 345.40486737954967 1453.9682444544223 350.13044681746265L1453.9682444544223 350.13044681746265Q1453.9682444544223 354.9451881315627 1450.9664612894585 357.887530045735Q1447.964678124495 360.8298719599073 1442.852730556438 360.8298719599073ZM1451.1745056672285 487.29113301852317L1434.5012348202522 487.29113301852317L1434.5012348202522 384.78469602882484L1451.1745056672285 384.78469602882484L1451.1745056672285 487.29113301852317ZM1534.2139330227565 489.8471068025516L1534.2139330227565 489.8471068025516Q1520.4235628391611 489.8471068025516 1509.6646964459255 483.7543785964373Q1498.9058300526895 477.661650390323 1492.6942193449922 465.68423835586424Q1486.4826086372955 453.7068263214054 1486.4826086372955 436.14193671255885L1486.4826086372955 436.14193671255885Q1486.4826086372955 418.48788522752534 1492.6942193449922 406.5699144438579Q1498.9058300526895 394.62222303479473 1509.6646964459255 388.52949482868047Q1520.4235628391611 382.4367666225662 1534.2139330227565 382.4367666225662L1534.2139330227565 382.4367666225662Q1547.9151413301647 382.4367666225662 1558.6740077234008 388.52949482868047Q1569.403153491241 394.62222303479473 1575.5553229481466 406.5699144438579Q1581.707492405052 418.48788522752534 1581.707492405052 436.14193671255885L1581.707492405052 436.14193671255885Q1581.707492405052 453.7068263214054 1575.5553229481466 465.68423835586424Q1569.403153491241 477.661650390323 1558.6740077234008 483.7543785964373Q1547.9151413301647 489.8471068025516 1534.2139330227565 489.8471068025516ZM1533.797844267217 475.31372098406433L1533.797844267217 475.31372098406433Q1543.724533149374 475.31372098406433 1550.6791594919632 470.5584209207556Q1557.6337858345519 465.77340023205124 1561.2299815074293 457.00581574032583Q1564.8261771803063 448.2382312486004 1564.8261771803063 436.14193671255885L1564.8261771803063 436.14193671255885Q1564.8261771803063 417.863752094216 1557.2176970790124 407.31293007874984Q1549.6092169777185 396.7621080632837 1534.630021778296 396.7621080632837L1534.630021778296 396.7621080632837Q1524.5844503945564 396.7621080632837 1517.689265302759 401.54712875198805Q1510.794080210961 406.30242881529676 1507.197884538084 415.1294545578135Q1503.6016888652066 423.9564803003303 1503.6016888652066 436.14193671255885L1503.6016888652066 436.14193671255885Q1503.6016888652066 454.24179757852767 1511.2696102172922 464.76289896859817Q1518.907810943982 475.31372098406433 1533.797844267217 475.31372098406433Z " fill="#7d141d" transform="matrix(0.5531996012532729,0,0,0.5531996012532729,0,70.5067396530482)"/></g></svg>